<?xml version="1.0" encoding="UTF-8"?>
<svg version="1.1" xmlns="http://www.w3.org/2000/svg" width="424" height="424">
<path d="M0 0 C0.85351044 -0.00979385 1.70702087 -0.01958771 2.58639526 -0.02967834 C21.35860826 -0.20065982 39.54874159 -0.15882078 57.91015625 4.23828125 C58.80847168 4.45258789 59.70678711 4.66689453 60.63232422 4.88769531 C89.40569885 12.0072013 116.3411402 24.20664482 139.91015625 42.23828125 C140.84859375 42.94597656 141.78703125 43.65367188 142.75390625 44.3828125 C149.48392278 49.61135382 155.71491186 55.39656983 161.91015625 61.23828125 C162.69390625 61.96789063 163.47765625 62.6975 164.28515625 63.44921875 C170.90006711 69.80425811 176.40850692 76.9270343 181.91015625 84.23828125 C182.55452637 85.08350342 182.55452637 85.08350342 183.21191406 85.94580078 C190.46292025 95.49937822 196.36874194 105.61277743 201.91015625 116.23828125 C202.52632813 117.40359375 203.1425 118.56890625 203.77734375 119.76953125 C215.93415068 144.19518941 223.88857925 172.96202971 224.1484375 200.328125 C224.15823135 201.18163544 224.16802521 202.03514587 224.17811584 202.91452026 C224.34909732 221.68673326 224.30725828 239.87686659 219.91015625 258.23828125 C219.58869629 259.58575439 219.58869629 259.58575439 219.26074219 260.96044922 C212.1412362 289.73382385 199.94179268 316.6692652 181.91015625 340.23828125 C181.20246094 341.17671875 180.49476563 342.11515625 179.765625 343.08203125 C174.53708368 349.81204778 168.75186767 356.04303686 162.91015625 362.23828125 C162.18054688 363.02203125 161.4509375 363.80578125 160.69921875 364.61328125 C154.34417939 371.22819211 147.2214032 376.73663192 139.91015625 382.23828125 C139.3466748 382.66786133 138.78319336 383.09744141 138.20263672 383.54003906 C128.64905928 390.79104525 118.53566007 396.69686694 107.91015625 402.23828125 C106.74484375 402.85445313 105.57953125 403.470625 104.37890625 404.10546875 C79.95324809 416.26227568 51.18640779 424.21670425 23.8203125 424.4765625 C22.96680206 424.48635635 22.11329163 424.49615021 21.23391724 424.50624084 C2.46170424 424.67722232 -15.72842909 424.63538328 -34.08984375 420.23828125 C-35.43731689 419.91682129 -35.43731689 419.91682129 -36.81201172 419.58886719 C-65.58538635 412.4693612 -92.5208277 400.26991768 -116.08984375 382.23828125 C-117.02828125 381.53058594 -117.96671875 380.82289063 -118.93359375 380.09375 C-125.66361028 374.86520868 -131.89459936 369.07999267 -138.08984375 363.23828125 C-139.26546875 362.14386719 -139.26546875 362.14386719 -140.46484375 361.02734375 C-147.07975461 354.67230439 -152.58819442 347.5495282 -158.08984375 340.23828125 C-158.73421387 339.39305908 -158.73421387 339.39305908 -159.39160156 338.53076172 C-166.64260775 328.97718428 -172.54842944 318.86378507 -178.08984375 308.23828125 C-178.70601562 307.07296875 -179.3221875 305.90765625 -179.95703125 304.70703125 C-192.11383818 280.28137309 -200.06826675 251.51453279 -200.328125 224.1484375 C-200.33791885 223.29492706 -200.34771271 222.44141663 -200.35780334 221.56204224 C-200.52878482 202.78982924 -200.48694578 184.59969591 -196.08984375 166.23828125 C-195.87553711 165.33996582 -195.66123047 164.44165039 -195.44042969 163.51611328 C-188.3209237 134.74273865 -176.12148018 107.8072973 -158.08984375 84.23828125 C-157.38214844 83.29984375 -156.67445313 82.36140625 -155.9453125 81.39453125 C-150.71677118 74.66451472 -144.93155517 68.43352564 -139.08984375 62.23828125 C-138.36023438 61.45453125 -137.630625 60.67078125 -136.87890625 59.86328125 C-130.52386689 53.24837039 -123.4010907 47.73993058 -116.08984375 42.23828125 C-115.5263623 41.80870117 -114.96288086 41.37912109 -114.38232422 40.93652344 C-104.82874678 33.68551725 -94.71534757 27.77969556 -84.08984375 22.23828125 C-82.341875 21.31402344 -82.341875 21.31402344 -80.55859375 20.37109375 C-56.13293559 8.21428682 -27.36609529 0.25985825 0 0 Z " fill="#FEFEFE" transform="translate(200.08984375,-0.23828125)"/>
<path d="M0 0 C0.85351044 -0.00979385 1.70702087 -0.01958771 2.58639526 -0.02967834 C21.35860826 -0.20065982 39.54874159 -0.15882078 57.91015625 4.23828125 C58.80847168 4.45258789 59.70678711 4.66689453 60.63232422 4.88769531 C89.40569885 12.0072013 116.3411402 24.20664482 139.91015625 42.23828125 C140.84859375 42.94597656 141.78703125 43.65367188 142.75390625 44.3828125 C149.48392278 49.61135382 155.71491186 55.39656983 161.91015625 61.23828125 C162.69390625 61.96789063 163.47765625 62.6975 164.28515625 63.44921875 C170.90006711 69.80425811 176.40850692 76.9270343 181.91015625 84.23828125 C182.55452637 85.08350342 182.55452637 85.08350342 183.21191406 85.94580078 C190.46292025 95.49937822 196.36874194 105.61277743 201.91015625 116.23828125 C202.52632813 117.40359375 203.1425 118.56890625 203.77734375 119.76953125 C215.93415068 144.19518941 223.88857925 172.96202971 224.1484375 200.328125 C224.15823135 201.18163544 224.16802521 202.03514587 224.17811584 202.91452026 C224.34909732 221.68673326 224.30725828 239.87686659 219.91015625 258.23828125 C219.58869629 259.58575439 219.58869629 259.58575439 219.26074219 260.96044922 C212.1412362 289.73382385 199.94179268 316.6692652 181.91015625 340.23828125 C181.20246094 341.17671875 180.49476563 342.11515625 179.765625 343.08203125 C174.53708368 349.81204778 168.75186767 356.04303686 162.91015625 362.23828125 C162.18054688 363.02203125 161.4509375 363.80578125 160.69921875 364.61328125 C154.34417939 371.22819211 147.2214032 376.73663192 139.91015625 382.23828125 C139.3466748 382.66786133 138.78319336 383.09744141 138.20263672 383.54003906 C128.64905928 390.79104525 118.53566007 396.69686694 107.91015625 402.23828125 C106.74484375 402.85445313 105.57953125 403.470625 104.37890625 404.10546875 C79.95324809 416.26227568 51.18640779 424.21670425 23.8203125 424.4765625 C22.96680206 424.48635635 22.11329163 424.49615021 21.23391724 424.50624084 C2.46170424 424.67722232 -15.72842909 424.63538328 -34.08984375 420.23828125 C-35.43731689 419.91682129 -35.43731689 419.91682129 -36.81201172 419.58886719 C-65.58538635 412.4693612 -92.5208277 400.26991768 -116.08984375 382.23828125 C-117.02828125 381.53058594 -117.96671875 380.82289063 -118.93359375 380.09375 C-125.66361028 374.86520868 -131.89459936 369.07999267 -138.08984375 363.23828125 C-139.26546875 362.14386719 -139.26546875 362.14386719 -140.46484375 361.02734375 C-147.07975461 354.67230439 -152.58819442 347.5495282 -158.08984375 340.23828125 C-158.73421387 339.39305908 -158.73421387 339.39305908 -159.39160156 338.53076172 C-166.64260775 328.97718428 -172.54842944 318.86378507 -178.08984375 308.23828125 C-178.70601562 307.07296875 -179.3221875 305.90765625 -179.95703125 304.70703125 C-192.11383818 280.28137309 -200.06826675 251.51453279 -200.328125 224.1484375 C-200.33791885 223.29492706 -200.34771271 222.44141663 -200.35780334 221.56204224 C-200.52878482 202.78982924 -200.48694578 184.59969591 -196.08984375 166.23828125 C-195.87553711 165.33996582 -195.66123047 164.44165039 -195.44042969 163.51611328 C-188.3209237 134.74273865 -176.12148018 107.8072973 -158.08984375 84.23828125 C-157.38214844 83.29984375 -156.67445313 82.36140625 -155.9453125 81.39453125 C-150.71677118 74.66451472 -144.93155517 68.43352564 -139.08984375 62.23828125 C-138.36023438 61.45453125 -137.630625 60.67078125 -136.87890625 59.86328125 C-130.52386689 53.24837039 -123.4010907 47.73993058 -116.08984375 42.23828125 C-115.5263623 41.80870117 -114.96288086 41.37912109 -114.38232422 40.93652344 C-104.82874678 33.68551725 -94.71534757 27.77969556 -84.08984375 22.23828125 C-82.341875 21.31402344 -82.341875 21.31402344 -80.55859375 20.37109375 C-56.13293559 8.21428682 -27.36609529 0.25985825 0 0 Z M-28.08984375 10.23828125 C-28.98461426 10.44759277 -29.87938477 10.6569043 -30.80126953 10.87255859 C-65.15105767 19.17361052 -95.36647775 34.62957717 -122.14453125 57.703125 C-123.82381542 59.1485566 -125.51130583 60.5848682 -127.22265625 61.9921875 C-130.97569577 65.08045096 -134.156225 68.43146881 -137.296875 72.140625 C-138.45206063 73.49211669 -139.63548326 74.82021607 -140.8515625 76.1171875 C-161.82226982 98.58266221 -176.54862505 127.47077036 -184.96484375 156.86328125 C-185.23917236 157.81501221 -185.51350098 158.76674316 -185.79614258 159.74731445 C-190.10036251 175.65781863 -191.58999014 191.35883705 -191.48095703 207.79907227 C-191.46487295 210.67056893 -191.48091406 213.54065479 -191.5 216.41210938 C-191.52003794 234.45193566 -189.16592834 251.91243921 -184.08984375 269.23828125 C-183.86345215 270.01719727 -183.63706055 270.79611328 -183.40380859 271.59863281 C-173.15821594 306.10227224 -154.43892319 334.97084135 -129.08984375 360.23828125 C-128.42984375 360.93308594 -127.76984375 361.62789063 -127.08984375 362.34375 C-109.31456774 380.84809007 -83.51043745 397.18287708 -59.08984375 405.23828125 C-58.09984375 405.23828125 -57.10984375 405.23828125 -56.08984375 405.23828125 C-53.59710819 396.54155543 -51.58609188 387.75941588 -49.65234375 378.92578125 C-49.31214837 377.38136305 -48.97164255 375.83701321 -48.63085938 374.29272461 C-48.07217882 371.76086913 -47.51371809 369.22896699 -46.95620728 366.69685364 C-45.37509391 359.51808436 -43.77925332 352.34264685 -42.1796875 345.16796875 C-37.53333184 324.31991953 -32.90084278 303.47055555 -28.42770386 282.58459473 C-25.77873842 270.23403915 -22.95765149 257.92781105 -20.08666992 245.62716675 C-17.04252537 232.56972619 -14.18193415 219.47942755 -11.40234375 206.36328125 C-8.86139501 194.37611656 -6.25245032 182.42331105 -3.32958984 170.5222168 C1.47907198 150.85840223 5.72585646 131.04314436 9.91015625 111.23828125 C10.11777588 110.26624756 10.32539551 109.29421387 10.53930664 108.29272461 C10.72356201 107.4085083 10.90781738 106.52429199 11.09765625 105.61328125 C11.25621094 104.85789062 11.41476563 104.1025 11.578125 103.32421875 C12.01495427 100.93193606 12.01495427 100.93193606 11.91015625 97.23828125 C10.98783203 96.80128906 10.98783203 96.80128906 10.046875 96.35546875 C6.27336392 94.44163059 3.44994008 92.94163594 0.84765625 89.55078125 C-0.44361602 84.98828591 -1.02910489 80.92719122 -0.08984375 76.23828125 C1.93334361 72.81061825 4.32616615 70.0302763 7.91015625 68.23828125 C17.8044717 67.20145179 17.8044717 67.20145179 21.96484375 69.25 C24.97042744 71.73969993 27.65328516 74.52978982 28.24609375 78.47265625 C28.33524168 84.21378289 28.05155987 88.94897036 23.91015625 93.23828125 C21.35074689 94.88431361 18.74128706 96.1319413 15.91015625 97.23828125 C16.58155612 103.32355754 17.66058335 109.22829024 18.94921875 115.2109375 C19.15067001 116.15843369 19.35212128 117.10592987 19.55967712 118.08213806 C20.21447782 121.1558212 20.87450959 124.22834973 21.53515625 127.30078125 C21.99345343 129.44204761 22.45170503 131.58332373 22.90991211 133.72460938 C27.10681535 153.29716919 31.48315595 172.82453615 36.0234375 192.3203125 C36.77803904 195.56364078 37.53184748 198.80715247 38.28515625 202.05078125 C38.56954559 203.27444397 38.56954559 203.27444397 38.85968018 204.52282715 C42.03131133 218.1921107 45.00174165 231.89819995 47.9057312 245.62652588 C50.7245726 258.93307707 53.72608817 272.18717767 56.84765625 285.42578125 C60.92565839 302.72533792 64.69461994 320.07846093 68.35766602 337.47021484 C71.50021582 352.3832747 74.79660542 367.25363535 78.19921875 382.109375 C78.87583488 385.08722953 79.53771944 388.06781801 80.19140625 391.05078125 C80.47395264 392.33988403 80.47395264 392.33988403 80.76220703 393.6550293 C81.09609866 395.18466447 81.42800708 396.71473479 81.75732422 398.24536133 C82.53552495 401.84118097 82.53552495 401.84118097 83.91015625 405.23828125 C90.57709606 403.40456762 96.80462778 401.1714817 103.03515625 398.17578125 C103.84919922 397.78656494 104.66324219 397.39734863 105.50195312 396.99633789 C124.72171781 387.60146265 143.1341912 374.71786368 157.91015625 359.23828125 C162.91015625 354.23828125 162.91015625 354.23828125 164.38671875 352.8671875 C196.03968103 322.78937263 217.22650798 273.89775421 219.01774597 230.64002991 C219.07262719 228.06564857 219.10076357 225.49290212 219.11328125 222.91796875 C219.11898132 221.9750296 219.1246814 221.03209045 219.1305542 220.06057739 C219.13992602 218.07913304 219.14650667 216.09767365 219.15039062 214.11621094 C219.16006615 211.14098828 219.19115329 208.16646677 219.22265625 205.19140625 C219.28741149 193.51162912 218.39519809 182.64596867 215.91015625 171.23828125 C215.72727051 170.28808105 215.54438477 169.33788086 215.35595703 168.35888672 C208.52816516 132.93061846 190.35599346 99.78877743 165.91796875 73.45703125 C164.51116223 71.90242793 163.16333646 70.29335468 161.86328125 68.6484375 C160.17742714 66.56809353 158.56728803 64.89987496 156.53515625 63.17578125 C153.93534142 60.96521781 151.34991202 58.74570135 148.8046875 56.47265625 C130.21276768 39.99625774 108.97634226 28.27538674 85.91015625 19.23828125 C84.74355469 18.76648437 83.57695312 18.2946875 82.375 17.80859375 C75.36389166 15.11779889 68.28071144 13.24532133 60.97265625 11.55078125 C59.66880981 11.24684448 59.66880981 11.24684448 58.33862305 10.93676758 C43.6148485 7.67705689 29.3010998 6.86330669 14.28515625 6.92578125 C12.88952454 6.92901398 12.88952454 6.92901398 11.46569824 6.93231201 C-1.89824966 6.98203806 -15.0182815 7.17425288 -28.08984375 10.23828125 Z " fill="#020202" transform="translate(200.08984375,-0.23828125)"/>
</svg>
